<svg xmlns="http://www.w3.org/2000/svg" xmlns:xlink="http://www.w3.org/1999/xlink" width="500" zoomAndPan="magnify" viewBox="0 0 375 374.999991" height="500" preserveAspectRatio="xMidYMid meet" version="1.0"><defs><clipPath id="6d4a41d600"><path d="M 22.949219 22.949219 L 352.199219 22.949219 L 352.199219 352.199219 L 22.949219 352.199219 Z M 22.949219 22.949219 " clip-rule="nonzero"/></clipPath></defs><g clip-path="url(#6d4a41d600)"><path fill="#673ab7" d="M 352.199219 306.472656 C 352.199219 331.734375 331.734375 352.199219 306.472656 352.199219 L 68.679688 352.199219 C 43.429688 352.199219 22.949219 331.734375 22.949219 306.472656 L 22.949219 68.679688 C 22.949219 43.417969 43.429688 22.949219 68.679688 22.949219 L 306.472656 22.949219 C 331.734375 22.949219 352.199219 43.417969 352.199219 68.679688 Z M 352.199219 306.472656 " fill-opacity="1" fill-rule="nonzero"/></g><path fill="#ffffff" d="M 270.164062 202.210938 C 264.21875 193.976562 255.621094 188.308594 244.554688 185.289062 C 244.554688 185.289062 253.882812 181.90625 262.296875 169.285156 C 267.328125 161.234375 269.886719 151.542969 269.886719 140.199219 C 269.886719 120.535156 262.753906 105.445312 248.488281 95.113281 C 234.21875 84.777344 218.121094 77.824219 190.777344 77.824219 L 105.261719 77.824219 L 105.261719 297.324219 L 200.65625 297.324219 C 226.539062 297.144531 246.019531 291.5625 259.277344 280.863281 C 272.449219 269.980469 279.035156 253.882812 279.035156 232.390625 C 279.035156 220.5 276.109375 210.441406 270.164062 202.210938 Z M 160.136719 114.410156 C 160.136719 114.410156 198.277344 114.410156 199.007812 114.410156 C 212.910156 114.410156 224.160156 125.660156 224.160156 139.558594 C 224.160156 153.460938 212.910156 164.710938 199.007812 164.710938 C 198.277344 164.710938 160.136719 164.710938 160.136719 164.710938 Z M 205.867188 260.742188 L 160.136719 260.742188 L 160.136719 205.867188 L 205.867188 205.867188 C 221.050781 205.867188 233.304688 218.121094 233.304688 233.304688 C 233.304688 248.488281 221.050781 260.742188 205.867188 260.742188 Z M 205.867188 260.742188 " fill-opacity="1" fill-rule="nonzero"/></svg>