<svg xmlns="http://www.w3.org/2000/svg" xmlns:xlink="http://www.w3.org/1999/xlink" width="500" zoomAndPan="magnify" viewBox="0 0 375 374.999991" height="500" preserveAspectRatio="xMidYMid meet" version="1.0"><defs><clipPath id="ac198c8983"><path d="M 0 0.683594 L 375 0.683594 L 375 374.933594 L 0 374.933594 Z M 0 0.683594 " clip-rule="nonzero"/></clipPath></defs><g clip-path="url(#ac198c8983)"><path fill="#ffffff" d="M 187.273438 0.808594 C 83.449219 0.808594 -0.683594 84.914062 -0.683594 188.703125 C -0.683594 281.914062 67.339844 359.347656 156.351562 373.992188 L 156.351562 246.613281 L 108.507812 246.613281 L 108.507812 190.816406 L 156.351562 190.816406 L 156.351562 150.308594 C 156.351562 106.386719 191.992188 76.617188 235.929688 76.617188 C 255.457031 76.617188 267.660156 79.546875 267.660156 79.546875 L 267.660156 126.394531 L 235.929688 126.394531 C 222.746094 126.394531 212.007812 137.132812 212.007812 150.308594 L 212.007812 190.816406 L 263.269531 190.816406 L 256.109375 246.613281 L 212.007812 246.613281 L 212.007812 374.804688 C 303.953125 362.601562 374.902344 283.867188 374.902344 188.703125 C 375.066406 84.914062 290.933594 0.808594 187.273438 0.808594 Z M 187.273438 0.808594 " fill-opacity="1" fill-rule="nonzero"/></g></svg>