<svg xmlns="http://www.w3.org/2000/svg" xmlns:xlink="http://www.w3.org/1999/xlink" width="500" zoomAndPan="magnify" viewBox="0 0 375 374.999991" height="500" preserveAspectRatio="xMidYMid meet" version="1.0"><defs><clipPath id="442cdfb557"><path d="M 143 84 L 233 84 L 233 292.5 L 143 292.5 Z M 143 84 " clip-rule="nonzero"/></clipPath></defs><path fill="#8c52ff" d="M 113.554688 262.921875 C 109.121094 262.921875 106.160156 261.445312 103.203125 258.484375 L 44.050781 199.332031 C 38.132812 193.414062 38.132812 184.542969 44.050781 178.625 L 103.203125 119.472656 C 109.121094 113.554688 117.992188 113.554688 123.910156 119.472656 C 129.824219 125.386719 129.824219 134.261719 123.910156 140.175781 L 75.105469 188.980469 L 123.910156 237.78125 C 129.824219 243.695312 129.824219 252.570312 123.910156 258.484375 C 120.949219 261.445312 117.992188 262.921875 113.554688 262.921875 Z M 113.554688 262.921875 " fill-opacity="1" fill-rule="nonzero"/><path fill="#8c52ff" d="M 261.445312 262.921875 C 257.007812 262.921875 254.050781 261.445312 251.089844 258.484375 C 245.175781 252.570312 245.175781 243.695312 251.089844 237.78125 L 299.894531 188.980469 L 251.089844 140.175781 C 245.175781 134.261719 245.175781 125.386719 251.089844 119.472656 C 257.007812 113.554688 265.878906 113.554688 271.796875 119.472656 L 330.949219 178.625 C 336.867188 184.542969 336.867188 193.414062 330.949219 199.332031 L 271.796875 258.484375 C 268.839844 261.445312 265.878906 262.921875 261.445312 262.921875 Z M 261.445312 262.921875 " fill-opacity="1" fill-rule="nonzero"/><g clip-path="url(#442cdfb557)"><path fill="#8c52ff" d="M 157.921875 292.5 C 156.445312 292.5 154.964844 292.5 153.484375 291.019531 C 146.089844 288.0625 141.65625 280.667969 144.613281 271.796875 L 203.765625 94.332031 C 206.726562 86.9375 214.121094 82.5 222.992188 85.457031 C 230.386719 88.414062 234.824219 95.808594 231.867188 104.683594 L 172.710938 282.148438 C 169.753906 288.0625 163.839844 292.5 157.921875 292.5 Z M 157.921875 292.5 " fill-opacity="1" fill-rule="nonzero"/></g></svg>