<svg xmlns="http://www.w3.org/2000/svg" xmlns:xlink="http://www.w3.org/1999/xlink" width="500" zoomAndPan="magnify" viewBox="0 0 375 374.999991" height="500" preserveAspectRatio="xMidYMid meet" version="1.0"><path fill="#ffffff" d="M 322.699219 173.460938 L 263.003906 233.136719 C 230.058594 266.105469 176.605469 266.105469 143.660156 233.136719 C 138.464844 227.964844 134.40625 222.132812 130.84375 216.117188 L 158.578125 188.378906 C 159.894531 187.050781 161.523438 186.289062 163.078125 185.390625 C 164.996094 191.945312 168.34375 198.148438 173.496094 203.296875 C 189.949219 219.761719 216.726562 219.742188 233.167969 203.296875 L 292.84375 143.625 C 309.304688 127.160156 309.304688 100.394531 292.84375 83.941406 C 276.398438 67.488281 249.632812 67.488281 233.167969 83.941406 L 211.945312 105.1875 C 194.730469 98.480469 176.171875 96.675781 158.113281 99.324219 L 203.332031 54.105469 C 236.300781 21.148438 289.730469 21.148438 322.699219 54.105469 C 355.648438 87.0625 355.648438 140.503906 322.699219 173.460938 Z M 164.894531 271.585938 L 143.660156 292.832031 C 127.207031 309.273438 100.429688 309.273438 83.976562 292.832031 C 67.523438 276.367188 67.523438 249.601562 83.976562 233.136719 L 143.660156 173.464844 C 160.121094 157 186.878906 157 203.332031 173.464844 C 208.472656 178.605469 211.820312 184.804688 213.757812 191.347656 C 215.324219 190.441406 216.933594 189.699219 218.25 188.382812 L 245.984375 160.65625 C 242.441406 154.621094 238.363281 148.808594 233.167969 143.625 C 200.222656 110.667969 146.769531 110.667969 113.8125 143.625 L 54.140625 203.300781 C 21.179688 236.269531 21.179688 289.699219 54.140625 322.667969 C 87.097656 355.613281 140.539062 355.613281 173.496094 322.667969 L 218.726562 277.4375 C 200.652344 280.09375 182.097656 278.28125 164.894531 271.585938 Z M 164.894531 271.585938 " fill-opacity="1" fill-rule="nonzero"/></svg>